<?xml version="1.0" standalone="no"?>
<!DOCTYPE svg PUBLIC "-//W3C//DTD SVG 20010904//EN"
 "http://www.w3.org/TR/2001/REC-SVG-20010904/DTD/svg10.dtd">
<svg version="1.0" xmlns="http://www.w3.org/2000/svg"
 width="299.000000pt" height="43.000000pt" viewBox="0 0 299.000000 43.000000"
 preserveAspectRatio="xMidYMid meet">
<metadata>
Created by potrace 1.15, written by Peter Selinger 2001-2017
</metadata>
<g transform="translate(0.000000,43.000000) scale(0.100000,-0.100000)"
fill="#000000" stroke="none">
<path d="M100 200 l0 -110 58 0 c79 0 90 13 90 110 0 97 -11 110 -90 110 l-58
0 0 -110z"/>
<path d="M1560 277 l0 -35 -45 6 c-62 7 -75 -7 -75 -78 0 -67 17 -82 93 -78
l47 2 1 73 c0 40 1 87 2 105 0 17 -5 34 -11 36 -8 2 -12 -9 -12 -31z"/>
<path d="M1922 212 c-18 -54 -32 -103 -32 -110 0 -21 20 -13 30 13 8 20 16 25
45 25 29 0 36 -4 41 -25 3 -14 13 -25 21 -25 10 0 14 6 10 18 -31 111 -64 202
-72 202 -6 0 -25 -44 -43 -98z"/>
<path d="M348 239 c-26 -14 -25 -109 0 -132 24 -22 122 -24 122 -3 0 11 -15
16 -52 18 -74 4 -75 26 -1 30 52 3 58 5 61 26 2 13 -4 34 -12 48 -13 19 -25
24 -59 24 -23 0 -50 -5 -59 -11z"/>
<path d="M1237 232 c-11 -12 -17 -36 -17 -65 0 -59 23 -77 98 -77 72 0 66 23
-8 30 -78 7 -79 30 -1 30 l61 0 0 33 c0 20 -8 41 -18 50 -26 23 -94 22 -115
-1z"/>
<path d="M2126 228 c-23 -32 -20 -84 5 -109 18 -18 29 -20 65 -15 33 4 44 2
44 -8 0 -21 -22 -34 -64 -38 -60 -5 -59 -28 2 -28 72 0 82 15 82 126 l0 90
-59 2 c-52 2 -62 0 -75 -20z"/>
<path d="M2360 241 c0 -12 26 -21 62 -21 19 0 28 -4 25 -12 -2 -8 -16 -12 -36
-10 -44 5 -81 -21 -81 -57 0 -41 19 -51 89 -50 l61 2 0 59 c0 84 -10 98 -70
98 -28 0 -50 -4 -50 -9z"/>
</g>
</svg>
